Coordinates
version=1
nRows=16
nColumns=33
inDegrees=yes

Units are S.I. units (second, meters, Newtons, ...)
Angles are in degrees.

endheader
time	ground_thorax_rot_x	ground_thorax_rot_y	ground_thorax_rot_z	ground_thorax_tx	ground_thorax_ty	ground_thorax_tz	clav_prot_r	clav_elev_r	scapula_abduction_r	scapula_elevation_r	scapula_upward_rot_r	scapula_winging_r	shoulder_elv_r	plane_of_elev_r	axial_rot_r	elbow_flexion_r	pro_sup_r	wrist_flex_r	wrist_dev_r	clav_prot_l	clav_elev_l	scapula_abduction_l	scapula_elevation_l	scapula_upward_rot_l	scapula_winging_l	shoulder_elv_l	plane_of_elev_l	axial_rot_l	elbow_flexion_l	pro_sup_l	wrist_flex_l	wrist_dev_l
     10.42000000	    -23.26888164	    -31.27265468	     49.32145394	     46.03801012	    762.38082258	    -42.46481522	     28.32650997	    -45.00000000	     38.97928459	    -45.00000000	    -45.00000000	  -4061.79018527	  -2626.32929119	    161.62370805	     46.89329527	    721.09698600	    183.16455561	     13.69639195	     12.11593435	     -1.01252819	     30.05025660	    -26.08504015	    -45.00000000	    -45.00000000	  -3879.54093099	  -1005.42014215	     25.35563936	     44.09780484	   1429.28991539	     43.84079517	     11.80366765	    -15.20580925
     10.43000000	    -23.47943841	    -31.10145165	     48.91717624	     43.40535930	    762.62693082	    -42.35635750	     28.30448039	    -45.00000000	     38.96066644	    -45.00000000	    -45.00000000	  -4061.89055210	  -2626.23738609	    161.59854225	     46.85634742	    721.10310878	    183.02161053	     13.71235432	     12.17690360	     -1.02516180	     30.05160298	    -26.14825085	    -45.00000000	    -45.00000000	  -3879.42213846	  -1005.41345106	     25.35266286	     43.94115646	   1429.27197613	     43.76249399	     11.84652947	    -15.22012849
     10.44000000	    -23.74031140	    -30.90065139	     48.44334137	     40.71293222	    762.92579416	    -42.24052737	     28.17917135	    -45.00000000	     38.91352648	    -45.00000000	    -45.00000000	  -4061.95746677	  -2626.18328159	    161.57862123	     46.79035589	    721.14206743	    182.88982541	     13.72952657	     12.23903391	     -0.97203380	     30.05143027	    -26.22194816	    -45.00000000	    -45.00000000	  -3879.31144576	  -1005.41764995	     25.35895717	     43.77924145	   1429.30327538	     43.66170345	     11.84927636	    -15.21623931
     10.45000000	    -23.94468291	    -30.73829450	     48.08811489	     37.96578120	    763.27993336	    -42.11916649	     28.28188344	    -45.00000000	     38.91940444	    -45.00000000	    -45.00000000	  -4062.08959657	  -2626.09344001	    161.55977257	     46.78105005	    721.12990206	    182.73111199	     13.73487187	     12.32358623	     -1.02465358	     30.14236288	    -26.28064528	    -45.00000000	    -45.00000000	  -3879.17726399	  -1005.36545566	     25.34529267	     43.70530605	   1429.26454558	     43.52467000	     11.92892025	    -15.24634349
     10.46000000	    -24.21047579	    -30.52336398	     47.63265593	     35.16352456	    763.69279399	    -41.99363669	     28.17338990	    -45.00000000	     38.87989112	    -45.00000000	    -45.00000000	  -4062.18788633	  -2626.01955666	    161.52098703	     46.68094520	    721.16023707	    182.59721280	     13.75081369	     12.39726989	     -1.00103720	     30.14193090	    -26.35634569	    -45.00000000	    -45.00000000	  -3879.06860765	  -1005.32729724	     25.36315517	     43.58656447	   1429.27651443	     43.36689298	     11.94179304	    -15.23538920
     10.47000000	    -24.44424374	    -30.38214080	     47.21359848	     32.31201291	    764.16633293	    -41.86516813	     28.18098965	    -45.00000000	     38.86213472	    -45.00000000	    -45.00000000	  -4062.27489979	  -2625.95602214	    161.49685661	     46.59012399	    721.14542925	    182.46351792	     13.75907564	     12.48636183	     -1.00179802	     30.19712538	    -26.43016949	    -45.00000000	    -45.00000000	  -3878.90114034	  -1005.30589166	     25.33167352	     43.50927403	   1429.25499003	     43.18301669	     12.00527339	    -15.25528432
     10.48000000	    -24.72146034	    -30.17247214	     46.76310401	     29.41844664	    764.70249232	    -41.73531356	     28.10342390	    -45.00000000	     38.84680796	    -45.00000000	    -45.00000000	  -4062.39208272	  -2625.92271724	    161.46336911	     46.46576766	    721.19136125	    182.33618580	     13.76122737	     12.58298422	     -0.99721981	     30.19181948	    -26.51401935	    -45.00000000	    -45.00000000	  -3878.75890441	  -1005.29014083	     25.35772934	     43.42880782	   1429.26733963	     42.98694563	     12.02559619	    -15.25110020
     10.49000000	    -24.96653834	    -30.00837389	     46.31747804	     26.48956588	    765.30278107	    -41.60521451	     28.14578109	    -45.00000000	     38.81213686	    -45.00000000	    -45.00000000	  -4062.47191557	  -2625.82768167	    161.44472627	     46.29221745	    721.12569814	    182.16637156	     13.77503934	     12.68222811	     -0.99871920	     30.28858093	    -26.58556478	    -45.00000000	    -45.00000000	  -3878.62065505	  -1005.22696318	     25.34055358	     43.40405311	   1429.21917755	     42.78028178	     12.10040074	    -15.26683808
     10.50000000	    -25.23575672	    -29.82473963	     45.86114279	     23.53416242	    765.96874567	    -41.47594881	     28.06446139	    -45.00000000	     38.79605024	    -45.00000000	    -45.00000000	  -4062.57934212	  -2625.78765665	    161.40798697	     46.09713159	    721.14237462	    181.98672018	     13.78213556	     12.78211767	     -0.98760469	     30.30356658	    -26.67743628	    -45.00000000	    -45.00000000	  -3878.46463101	  -1005.19336737	     25.35179656	     43.37777934	   1429.21220586	     42.57920933	     12.12472832	    -15.26066147
     10.51000000	    -25.53620710	    -29.59018732	     45.37985150	     20.55917339	    766.70173293	    -41.34754255	     28.08237344	    -45.00000000	     38.77314476	    -45.00000000	    -45.00000000	  -4062.74300727	  -2625.75952667	    161.32818111	     45.91810410	    721.15627609	    181.76069056	     13.77418577	     12.91276571	     -1.01322213	     30.35504898	    -26.79914875	    -45.00000000	    -45.00000000	  -3878.29026871	  -1005.17494043	     25.41688725	     43.42077482	   1429.18920431	     42.38550231	     12.19956896	    -15.29344775
     10.52000000	    -25.75217595	    -29.46169696	     44.97057343	     17.57423418	    767.50166342	    -41.21971544	     28.11661307	    -45.00000000	     38.77665462	    -45.00000000	    -45.00000000	  -4062.78669996	  -2625.64475318	    161.35827755	     45.67180906	    721.07883673	    181.43688128	     13.78119579	     13.00871767	     -1.01686814	     30.46159273	    -26.84940440	    -45.00000000	    -45.00000000	  -3878.16716860	  -1005.07935344	     25.36600646	     43.44829842	   1429.13440060	     42.19393068	     12.27322650	    -15.30817864
     10.53000000	    -26.04935128	    -29.23381605	     44.45266931	     14.58380560	    768.36828852	    -41.09150249	     28.03423372	    -45.00000000	     38.73681507	    -45.00000000	    -45.00000000	  -4062.89953878	  -2625.60116813	    161.28622402	     45.36557790	    721.06196812	    181.06264755	     13.79643394	     13.11041853	     -0.99891374	     30.46245260	    -26.96826891	    -45.00000000	    -45.00000000	  -3878.02574846	  -1005.04147966	     25.40460990	     43.47934308	   1429.10595971	     42.02623891	     12.30754551	    -15.30459972
     10.54000000	    -26.32917147	    -29.05126920	     43.98941644	     11.59469380	    769.29897311	    -40.96249481	     28.01203877	    -45.00000000	     38.73296147	    -45.00000000	    -45.00000000	  -4063.00482450	  -2625.57651341	    161.23550571	     45.13786152	    721.08492016	    180.64056786	     13.78314860	     13.22478977	     -0.99733577	     30.56692064	    -27.04403023	    -45.00000000	    -45.00000000	  -3877.86597382	  -1004.96720318	     25.41895012	     43.61712481	   1429.12224961	     41.85941835	     12.36349559	    -15.33636470
     10.55000000	    -26.59666446	    -28.84562368	     43.51119451	      8.61347644	    770.28962781	    -40.83266899	     27.98512532	    -45.00000000	     38.72611725	    -45.00000000	    -45.00000000	  -4063.11926038	  -2625.50464888	    161.22114071	     44.84513569	    721.03140160	    180.13241643	     13.78377254	     13.32647323	     -0.99770621	     30.54509413	    -27.19172252	    -45.00000000	    -45.00000000	  -3877.70670991	  -1004.93332914	     25.45960259	     43.66375672	   1429.09206117	     41.70309838	     12.43896045	    -15.36450524
     10.56000000	    -26.83902965	    -28.70148168	     43.06613294	      5.64213676	    771.33650165	    -40.70241450	     28.02256422	    -45.00000000	     38.72171731	    -45.00000000	    -45.00000000	  -4063.19884310	  -2625.44333988	    161.19904854	     44.61897474	    720.99655430	    179.55062862	     13.76188988	     13.43427188	     -1.00932142	     30.69785648	    -27.24795854	    -45.00000000	    -45.00000000	  -3877.56304146	  -1004.87022954	     25.45060704	     43.76012248	   1429.07250465	     41.54623874	     12.52877971	    -15.40680434
     10.57000000	    -27.17155385	    -28.46447864	     42.50841748	      2.68639925	    772.43576489	    -40.57260049	     27.94964092	    -45.00000000	     38.68254581	    -45.00000000	    -45.00000000	  -4063.31723430	  -2625.46660037	    161.06209021	     44.40032836	    721.06273964	    178.97079891	     13.71976052	     13.55488083	     -1.02445190	     30.69689503	    -27.37689331	    -45.00000000	    -45.00000000	  -3877.37651366	  -1004.77874358	     25.49996367	     43.97068299	   1429.11092505	     41.39192797	     12.57895869	    -15.44153885
